<svg width="1080" height="1080" viewBox="0 0 1080 1080" fill="none" xmlns="http://www.w3.org/2000/svg">
<path d="M377 647.059H451.743V778H377V647.059Z" fill="#272727"/>
<path d="M377 525.471H451.743V647.059H377V525.471Z" fill="#272727"/>
<path d="M377 394.529H451.743V525.471H377V394.529Z" fill="#272727"/>
<path d="M377 328.279C377 313.213 389.2 301 404.25 301H424.493C439.543 301 451.743 313.213 451.743 328.279V367.25C451.743 382.316 439.543 394.529 424.493 394.529H404.25C389.2 394.529 377 382.316 377 367.25V328.279Z" fill="#272727"/>
<path d="M423.714 301H451.743L451.743 394.529L423.714 394.529V301Z" fill="#272727"/>
<path d="M377 366.471H451.743V394.529H377V366.471Z" fill="#272727"/>
<path d="M451.743 328.279C451.743 313.213 463.943 301 478.993 301H564.636C579.685 301 591.886 313.213 591.886 328.279V367.25C591.886 382.316 579.685 394.529 564.636 394.529H478.993C463.943 394.529 451.743 382.316 451.743 367.25V328.279Z" fill="#272727"/>
<path d="M451.743 328.279C451.743 313.213 463.943 301 478.993 301H564.636C579.685 301 591.886 313.213 591.886 328.279V367.25C591.886 382.316 579.685 394.529 564.636 394.529H478.993C463.943 394.529 451.743 382.316 451.743 367.25V328.279Z" fill="#272727"/>
<path d="M591.886 421.809C591.886 406.743 604.086 394.529 619.136 394.529H676.75C691.8 394.529 704 406.743 704 421.809V498.191C704 513.257 691.8 525.471 676.75 525.471H619.136C604.086 525.471 591.886 513.257 591.886 498.191V421.809Z" fill="#272727"/>
<path d="M591.886 421.809C591.886 406.743 604.086 394.529 619.136 394.529H676.75C691.8 394.529 704 406.743 704 421.809V498.191C704 513.257 691.8 525.471 676.75 525.471H619.136C604.086 525.471 591.886 513.257 591.886 498.191V421.809Z" fill="#272727"/>
<path d="M591.886 394.529H657.286V525.471H591.886V394.529Z" fill="#272727"/>
<path d="M442.4 301H554.514V394.529H442.4V301Z" fill="#272727"/>
<path d="M451.743 356.338C451.743 341.272 463.943 329.059 478.993 329.059H564.636C579.685 329.059 591.886 341.272 591.886 356.338V367.25C591.886 382.316 579.685 394.529 564.636 394.529H478.993C463.943 394.529 451.743 382.316 451.743 367.25L451.743 356.338Z" fill="#272727"/>
<path d="M451.743 525.471L591.886 525.471L591.886 609.647H451.743L451.743 525.471Z" fill="#272727"/>
<path d="M591.886 636.926C591.886 621.86 604.086 609.647 619.136 609.647H676.75C691.8 609.647 704 621.86 704 636.926V750.721C704 765.787 691.8 778 676.75 778H619.136C604.086 778 591.886 765.787 591.886 750.721V636.926Z" fill="#272727"/>
<path d="M591.886 609.647L657.286 609.647V778H591.886L591.886 609.647Z" fill="#272727"/>
<path d="M377 647.059H451.743V778H377V647.059Z" fill="#272727"/>
<path d="M377 525.471H451.743V647.059H377V525.471Z" fill="#272727"/>
<path d="M377 394.529H451.743V525.471H377V394.529Z" fill="#272727"/>
<path d="M377 328.279C377 313.213 389.2 301 404.25 301H424.493C439.543 301 451.743 313.213 451.743 328.279V367.25C451.743 382.316 439.543 394.529 424.493 394.529H404.25C389.2 394.529 377 382.316 377 367.25V328.279Z" fill="#272727"/>
<path d="M423.714 301H451.743L451.743 394.529L423.714 394.529V301Z" fill="#272727"/>
<path d="M377 366.471H451.743V394.529H377V366.471Z" fill="#272727"/>
<path d="M451.743 328.279C451.743 313.213 463.943 301 478.993 301H564.636C579.685 301 591.886 313.213 591.886 328.279V367.25C591.886 382.316 579.685 394.529 564.636 394.529H478.993C463.943 394.529 451.743 382.316 451.743 367.25V328.279Z" fill="#272727"/>
<path d="M451.743 328.279C451.743 313.213 463.943 301 478.993 301H564.636C579.685 301 591.886 313.213 591.886 328.279V367.25C591.886 382.316 579.685 394.529 564.636 394.529H478.993C463.943 394.529 451.743 382.316 451.743 367.25V328.279Z" fill="#272727"/>
<path d="M591.886 421.809C591.886 406.743 604.086 394.529 619.136 394.529H676.75C691.8 394.529 704 406.743 704 421.809V498.191C704 513.257 691.8 525.471 676.75 525.471H619.136C604.086 525.471 591.886 513.257 591.886 498.191V421.809Z" fill="#272727"/>
<path d="M591.886 421.809C591.886 406.743 604.086 394.529 619.136 394.529H676.75C691.8 394.529 704 406.743 704 421.809V498.191C704 513.257 691.8 525.471 676.75 525.471H619.136C604.086 525.471 591.886 513.257 591.886 498.191V421.809Z" fill="#272727"/>
<path d="M591.886 394.529H657.286V525.471H591.886V394.529Z" fill="#272727"/>
<path d="M442.4 301H554.514V394.529H442.4V301Z" fill="#272727"/>
<path d="M451.743 356.338C451.743 341.272 463.943 329.059 478.993 329.059H564.636C579.685 329.059 591.886 341.272 591.886 356.338V367.25C591.886 382.316 579.685 394.529 564.636 394.529H478.993C463.943 394.529 451.743 382.316 451.743 367.25L451.743 356.338Z" fill="#272727"/>
<path d="M451.743 525.471L591.886 525.471L591.886 609.647H451.743L451.743 525.471Z" fill="#272727"/>
<path d="M591.886 636.926C591.886 621.86 604.086 609.647 619.136 609.647H676.75C691.8 609.647 704 621.86 704 636.926V750.721C704 765.787 691.8 778 676.75 778H619.136C604.086 778 591.886 765.787 591.886 750.721V636.926Z" fill="#272727"/>
<path d="M591.886 609.647L657.286 609.647V778H591.886L591.886 609.647Z" fill="#272727"/>
</svg>
